<?xml version="1.0" encoding="utf-8"?>
<svg viewBox="242.906 417.768 1436.845 243.575" style="enable-background:new 0 0 1920 1080;" xmlns="http://www.w3.org/2000/svg">
  <g transform="matrix(1.17421, 0, 0, 1.17421, 235.886993, 1518.560059)">
    <path d="M78.1-767.3l-11.4,33.7H9.4l76.2-200.1h57.3l75.3,200.1h-58.5l-11.1-33.7H78.1z M92.9-811.1h41.4l-20.4-62.1L92.9-811.1z"/>
  </g>
  <g transform="matrix(1.17421, 0, 0, 1.17421, 255.460999, 1518.560059)">
    <path d="M347.5-827.7v-106h56.2v200.1h-42.2L280-836v102.4h-56.2v-200.1h39.4L347.5-827.7z"/>
  </g>
  <g transform="matrix(1, 0, 0, 1, -58.245399, 0)">
    <rect x="834" y="422.2" width="66" height="235"/>
  </g>
  <g transform="matrix(1.24656, 0, 0, 1.24656, 251.533997, 1465.219971)">
    <path d="M606.4-648.2h80v-115.7h-53.8v66.8h-24.4c-9.1,0-17-1.7-23.7-5c-6.7-3.3-11.8-8.4-15.4-15.2s-5.4-15.3-5.4-25.4 c0-10.1,1.8-18.5,5.5-25.1c3.7-6.7,8.8-11.7,15.4-15c6.6-3.3,14.4-5,23.5-5h77.7l0-48.9h-78.9c-14.8,0-28.5,2.2-40.9,6.6 c-12.4,4.4-23.3,10.8-32.4,19.1c-9.2,8.3-16.3,18.2-21.3,29.8c-5,11.6-7.5,24.5-7.5,38.8c0,14.3,2.5,27.2,7.5,38.8 c5,11.6,12.1,21.5,21.3,29.8c9.2,8.3,19.9,14.7,32.3,19.1C578.2-650.4,591.7-648.2,606.4-648.2z"/>
  </g>
  <g transform="matrix(1.17421, 0, 0, 1.17421, 332.074005, 1518.560059)">
    <path d="M805.8-837.6l65.4-96.1h40.8v200.1h-55.7v-94l-32.6,46.8h-36l-32.6-47.1v94.3h-55.7v-200.1h40.8L805.8-837.6z"/>
  </g>
  <g transform="matrix(1.17421, 0, 0, 1.17421, 355.389008, 1518.560059)">
    <path d="M983.1-767.3l-11.4,33.7h-57.3l76.2-200.1h57.3l75.3,200.1h-58.5l-11.1-33.7H983.1z M997.8-811.1h41.4l-20.4-62.1 L997.8-811.1z"/>
  </g>
</svg>